<svg width="32" height="32" viewBox="0 0 32 32" fill="none" xmlns="http://www.w3.org/2000/svg">
  <g fill="#ffc220">
    <!-- Walmart spark symbol - 6 rounded rays -->
    <!-- Top ray -->
    <path d="M16 2 C17.5 2 18 3 18 4.5 L18 10.5 C18 12 17.5 12.5 16 12.5 C14.5 12.5 14 12 14 10.5 L14 4.5 C14 3 14.5 2 16 2 Z" />
    <!-- Bottom ray -->
    <path d="M16 30 C14.5 30 14 29 14 27.5 L14 21.5 C14 20 14.5 19.5 16 19.5 C17.5 19.5 18 20 18 21.5 L18 27.5 C18 29 17.5 30 16 30 Z" />
    <!-- Top-right ray -->
    <path d="M26.5 8.5 C27.5 9.5 27.5 10.5 26.5 11.5 L22.5 15.5 C21.5 16.5 20.5 16.5 19.5 15.5 C18.5 14.5 18.5 13.5 19.5 12.5 L23.5 8.5 C24.5 7.5 25.5 7.5 26.5 8.5 Z" />
    <!-- Bottom-left ray -->
    <path d="M5.5 23.5 C4.5 22.5 4.5 21.5 5.5 20.5 L9.5 16.5 C10.5 15.5 11.5 15.5 12.5 16.5 C13.5 17.5 13.5 18.5 12.5 19.5 L8.5 23.5 C7.5 24.5 6.5 24.5 5.5 23.5 Z" />
    <!-- Top-left ray -->
    <path d="M5.5 8.5 C6.5 7.5 7.5 7.5 8.5 8.5 L12.5 12.5 C13.5 13.5 13.5 14.5 12.5 15.5 C11.5 16.5 10.5 16.5 9.5 15.5 L5.5 11.5 C4.5 10.5 4.5 9.5 5.5 8.5 Z" />
    <!-- Bottom-right ray -->
    <path d="M26.5 23.5 C25.5 24.5 24.5 24.5 23.5 23.5 L19.5 19.5 C18.5 18.5 18.5 17.5 19.5 16.5 C20.5 15.5 21.5 15.5 22.5 16.5 L26.5 20.5 C27.5 21.5 27.5 22.5 26.5 23.5 Z" />
  </g>
</svg>
